<?xml version="1.0" encoding="utf-8"?>
<!-- Generator: Adobe Illustrator 23.0.2, SVG Export Plug-In . SVG Version: 6.00 Build 0)  -->
<svg version="1.1" id="Layer_1" xmlns="http://www.w3.org/2000/svg" xmlns:xlink="http://www.w3.org/1999/xlink" x="0px" y="0px"
	 viewBox="0 0 464 141.3" style="enable-background:new 0 0 464 141.3;" xml:space="preserve">
<style type="text/css">
	.st0{fill:#1A1A1A;}
	.st1{fill:#FFFFFF;}
</style>
<rect x="806.1" y="-205.7" class="st0" width="633" height="632"/>
<circle class="st0" cx="232.3" cy="70.6" r="0"/>
<g>
	<path class="st1" d="M5.6,8.9h40.6v123.8H5.6V8.9z"/>
	<path class="st1" d="M77.4,8.9h96.1v26.9h-55.5V56h49.1v27.4h-49.1v22.8h55.5v26.6H77.4V8.9z"/>
	<path class="st1" d="M259.6,46.9c0-5.1-5.4-9.4-11.8-9.4c-6.4,0-11.6,4.3-11.6,9.4s5.2,9.2,11.6,9.2c15.1,0,28.7,5.8,37.3,14.7
		c6.6,6.6,10.3,14.9,10.3,23.9c0,21.1-21.3,38-47.7,38s-47.7-16.7-47.7-38.5h36.1c0,5.3,5.2,9.4,11.6,9.4c6.4,0,11.8-4.1,11.8-9.2
		c0-5.1-5.4-9.4-11.8-9.4c-26.4,0-47.5-16.8-47.5-38c0-21.1,21-38.1,47.5-38.1s47.7,16.8,47.7,38H259.6z"/>
	<path class="st1" d="M324.4,8.9h57.4c42.7,0,77.4,27.7,77.4,61.9c0,34.2-34.7,61.9-77.4,61.9h-57.4V8.9z M364.8,100.7h17.1
		c20.2,0,36.7-13.2,36.7-29.4c0-16-16.5-29.2-36.7-29.2h-17.1V100.7z"/>
</g>
<g>
	<path class="st1" d="M-31,743.1h12.4v47H-31V743.1z"/>
	<path class="st1" d="M25.4,790.1L3.2,767.8v22.3H-9.1v-47h5l22.3,22.2v-22.2h12.4v47H25.4z"/>
	<path class="st1" d="M40,743.1h12.4v34.6h16.9v12.4H40V743.1z"/>
	<path class="st1" d="M75,790.1l21.9-47h5.6l22.1,47h-12.4l-2.9-6.1H90.2l-2.8,6.1H75z M95,773.6h9.6l-4.8-10.3L95,773.6z"/>
	<path class="st1" d="M165.5,790.1l-22.2-22.3v22.3h-12.4v-47h5l22.3,22.2v-22.2h12.4v47H165.5z"/>
	<path class="st1" d="M180.1,743.1h17.4c13,0,23.5,10.5,23.5,23.5c0,13-10.5,23.5-23.5,23.5h-17.4V743.1z M192.4,777.8h5.2
		c6.1,0,11.2-5,11.2-11.2c0-6.1-5-11.1-11.2-11.1h-5.2V777.8z"/>
	<path class="st1" d="M257.8,743.1H287v10.2h-16.9v7.6h14.9v10.4h-14.9v8.7H287v10.1h-29.2V743.1z"/>
	<path class="st1" d="M320.7,760.5l19.1-17.4h5.6v47H333V766l-12.3,11.2L308.3,766v24.1h-12.4v-47h5.6L320.7,760.5z"/>
	<path class="st1" d="M354.9,743.1h19.8c9.5,0,17.3,7.8,17.3,17.3c0,9.5-7.7,17.2-17.1,17.2h-7.7v12.5h-12.4V743.1z M367.2,767h7.6
		c3.8,0,6.8-2.9,6.8-6.7s-3-6.8-6.8-6.8h-7.6V767z"/>
	<path class="st1" d="M398.6,743.1h12.4v47h-12.4V743.1z"/>
	<path class="st1" d="M447.7,790.1l-7.3-12.5h-7.6v12.5h-12.4v-47h19.8c9.5,0,17.3,7.8,17.3,17.3c0,5-2.2,9.5-5.6,12.7l10,17.1
		H447.7z M432.8,767h7.6c3.8,0,6.8-2.9,6.8-6.7s-3-6.8-6.8-6.8h-7.6V767z"/>
	<path class="st1" d="M468,743.1h29.2v10.2h-16.9v7.6h14.9v10.4h-14.9v8.7h16.9v10.1H468V743.1z"/>
</g>
<g>
	<path class="st1" d="M-20.3,813.1c0-1.1-0.9-2.1-2.1-2.1c-1.1,0-2,0.9-2,2.1c0,1.1,0.9,2,2,2c2.7,0,5.1,1.3,6.6,3.2
		c1.2,1.5,1.8,3.3,1.8,5.3c0,4.7-3.8,8.4-8.4,8.4s-8.4-3.7-8.4-8.5h6.4c0,1.2,0.9,2.1,2,2.1c1.1,0,2.1-0.9,2.1-2
		c0-1.1-0.9-2.1-2.1-2.1c-4.7,0-8.4-3.7-8.4-8.4s3.7-8.4,8.4-8.4s8.4,3.7,8.4,8.4H-20.3z"/>
	<path class="st1" d="M3.8,804.8c7.5,0,13.7,6.2,13.7,13.7c0,7.5-6.1,13.6-13.7,13.6c-7.5,0-13.6-6.1-13.6-13.6
		C-9.8,810.9-3.7,804.8,3.8,804.8z M3.8,811.9c-3.6,0-6.5,2.9-6.5,6.5c0,3.6,2.9,6.5,6.5,6.5c3.6,0,6.5-3,6.5-6.5
		C10.4,814.8,7.4,811.9,3.8,811.9z"/>
	<path class="st1" d="M22.5,804.8h17.1v5.9h-9.9v4.4h8.8v6.1h-8.8v10.9h-7.2V804.8z"/>
	<path class="st1" d="M44.2,804.7h21.5v7.1h-7.3v20.2h-7.2v-20.2h-7.1V804.7z"/>
	<path class="st1" d="M90.6,822.4l-4.5,9.7h-5.2l-12.6-27.3h7.9l7.7,16.7l5.2-11.4h3l5.2,11.4l7.8-16.7h7.9l-12.6,27.3h-5.2
		L90.6,822.4z"/>
	<path class="st1" d="M111.7,832.1l12.8-27.3h3.2l12.9,27.3h-7.2l-1.7-3.6h-11.2l-1.6,3.6H111.7z M123.4,822.5h5.6l-2.8-6
		L123.4,822.5z"/>
	<path class="st1" d="M160.1,832.1l-4.2-7.3h-4.4v7.3h-7.2v-27.3h11.5c5.5,0,10.1,4.5,10.1,10.1c0,2.9-1.3,5.5-3.2,7.4l5.8,9.9
		H160.1z M151.4,818.6h4.4c2.2,0,3.9-1.7,3.9-3.9s-1.7-3.9-3.9-3.9h-4.4V818.6z"/>
	<path class="st1" d="M171.9,804.8h17v5.9h-9.8v4.4h8.7v6h-8.7v5h9.8v5.9h-17V804.8z"/>
	<path class="st1" d="M210.5,804.8h10.1c7.5,0,13.7,6.1,13.7,13.7c0,7.5-6.1,13.7-13.7,13.7h-10.1V804.8z M217.6,824.9h3
		c3.6,0,6.5-2.9,6.5-6.5c0-3.5-2.9-6.4-6.5-6.4h-3V824.9z"/>
	<path class="st1" d="M239.2,804.8h17v5.9h-9.8v4.4h8.7v6h-8.7v5h9.8v5.9h-17V804.8z"/>
	<path class="st1" d="M287.7,804.7L275,832.1h-3.3l-12.7-27.4h7.2l7.2,15.6l7.2-15.6H287.7z"/>
	<path class="st1" d="M290.8,804.8h17v5.9H298v4.4h8.7v6H298v5h9.8v5.9h-17V804.8z"/>
	<path class="st1" d="M313,804.8h7.2v20.1h9.8v7.2h-17V804.8z"/>
	<path class="st1" d="M347.1,804.8c7.5,0,13.7,6.2,13.7,13.7c0,7.5-6.1,13.6-13.7,13.6c-7.5,0-13.6-6.1-13.6-13.6
		C333.5,810.9,339.6,804.8,347.1,804.8z M347.1,811.9c-3.6,0-6.5,2.9-6.5,6.5c0,3.6,2.9,6.5,6.5,6.5c3.6,0,6.5-3,6.5-6.5
		C353.6,814.8,350.7,811.9,347.1,811.9z"/>
	<path class="st1" d="M365.8,804.8h11.5c5.5,0,10.1,4.5,10.1,10.1c0,5.5-4.5,10-9.9,10H373v7.3h-7.2V804.8z M373,818.6h4.4
		c2.2,0,3.9-1.7,3.9-3.9s-1.7-3.9-3.9-3.9H373V818.6z"/>
	<path class="st1" d="M405.6,814.9l11.1-10.1h3.2v27.3h-7.2v-14l-7.1,6.5l-7.2-6.5v14h-7.2v-27.3h3.2L405.6,814.9z"/>
	<path class="st1" d="M425.5,804.8h17v5.9h-9.8v4.4h8.7v6h-8.7v5h9.8v5.9h-17V804.8z"/>
	<path class="st1" d="M467.7,832.1l-12.9-12.9v12.9h-7.2v-27.3h2.9l12.9,12.9v-12.9h7.2v27.3H467.7z"/>
	<path class="st1" d="M475.6,804.7h21.5v7.1h-7.3v20.2h-7.2v-20.2h-7.1V804.7z"/>
</g>
<rect x="-898.4" y="-243.2" class="st0" width="633" height="632"/>
<g>
	<path class="st1" d="M-844.6-75.4h47.3V68.8h-47.3V-75.4z"/>
	<path class="st1" d="M-761-75.4h112v31.3h-64.6v23.5h57.2v31.9h-57.2v26.5h64.6v31h-112V-75.4z"/>
	<path class="st1" d="M-548.8-31.2c0-6-6.2-11-13.7-11c-7.4,0-13.5,5-13.5,11s6,10.8,13.5,10.8c17.5,0,33.4,6.7,43.5,17.1
		c7.7,7.7,12,17.3,12,27.9c0,24.6-24.7,44.2-55.5,44.2c-30.8,0-55.5-19.4-55.5-44.8h42.1c0,6.2,6,11,13.5,11
		c7.4,0,13.7-4.8,13.7-10.8c0-6-6.2-11-13.7-11c-30.8,0-55.3-19.6-55.3-44.2c0-24.6,24.5-44.4,55.3-44.4c30.8,0,55.5,19.6,55.5,44.2
		H-548.8z"/>
	<path class="st1" d="M-473.4-75.4h66.8c49.7,0,90.1,32.3,90.1,72.1c0,39.8-40.4,72.1-90.1,72.1h-66.8V-75.4z M-426.3,31.5h19.9
		c23.5,0,42.8-15.4,42.8-34.2c0-18.6-19.2-34-42.8-34h-19.9V31.5z"/>
</g>
<g>
	<path class="st1" d="M-843.7,97.8h12.4v47h-12.4V97.8z"/>
	<path class="st1" d="M-787.3,144.8l-22.2-22.3v22.3h-12.4v-47h5l22.3,22.2V97.8h12.4v47H-787.3z"/>
	<path class="st1" d="M-772.7,97.8h12.4v34.6h16.9v12.4h-29.3V97.8z"/>
	<path class="st1" d="M-737.7,144.8l21.9-47h5.6l22.1,47h-12.4l-2.9-6.1h-19.3l-2.8,6.1H-737.7z M-717.7,128.3h9.6l-4.8-10.3
		L-717.7,128.3z"/>
	<path class="st1" d="M-647.2,144.8l-22.2-22.3v22.3h-12.4v-47h5l22.3,22.2V97.8h12.4v47H-647.2z"/>
	<path class="st1" d="M-632.6,97.8h17.4c13,0,23.5,10.5,23.5,23.5c0,13-10.5,23.5-23.5,23.5h-17.4V97.8z M-620.3,132.5h5.2
		c6.1,0,11.2-5,11.2-11.2c0-6.1-5-11.1-11.2-11.1h-5.2V132.5z"/>
	<path class="st1" d="M-554.9,97.8h29.2V108h-16.9v7.6h14.9v10.4h-14.9v8.7h16.9v10.1h-29.2V97.8z"/>
	<path class="st1" d="M-492,115.2l19.1-17.4h5.6v47h-12.4v-24.1l-12.3,11.2l-12.4-11.2v24.1h-12.4v-47h5.6L-492,115.2z"/>
	<path class="st1" d="M-457.8,97.8h19.8c9.5,0,17.3,7.8,17.3,17.3c0,9.5-7.7,17.2-17.1,17.2h-7.7v12.5h-12.4V97.8z M-445.5,121.7
		h7.6c3.8,0,6.8-2.9,6.8-6.7c0-3.8-3-6.8-6.8-6.8h-7.6V121.7z"/>
	<path class="st1" d="M-414.1,97.8h12.4v47h-12.4V97.8z"/>
	<path class="st1" d="M-365,144.8l-7.3-12.5h-7.6v12.5h-12.4v-47h19.8c9.5,0,17.3,7.8,17.3,17.3c0,5-2.2,9.5-5.6,12.7l10,17.1H-365z
		 M-379.9,121.7h7.6c3.8,0,6.8-2.9,6.8-6.7c0-3.8-3-6.8-6.8-6.8h-7.6V121.7z"/>
	<path class="st1" d="M-344.7,97.8h29.2V108h-16.9v7.6h14.9v10.4h-14.9v8.7h16.9v10.1h-29.2V97.8z"/>
</g>
<g>
	<path class="st1" d="M-832.9,167.8c0-1.1-0.9-2.1-2.1-2.1c-1.1,0-2,0.9-2,2.1c0,1.1,0.9,2,2,2c2.7,0,5.1,1.3,6.6,3.2
		c1.2,1.5,1.8,3.3,1.8,5.3c0,4.7-3.8,8.4-8.4,8.4s-8.4-3.7-8.4-8.5h6.4c0,1.2,0.9,2.1,2,2.1c1.1,0,2.1-0.9,2.1-2
		c0-1.1-0.9-2.1-2.1-2.1c-4.7,0-8.4-3.7-8.4-8.4c0-4.7,3.7-8.4,8.4-8.4s8.4,3.7,8.4,8.4H-832.9z"/>
	<path class="st1" d="M-808.7,159.5c7.5,0,13.7,6.2,13.7,13.7s-6.1,13.6-13.7,13.6c-7.5,0-13.6-6.1-13.6-13.6
		S-816.2,159.5-808.7,159.5z M-808.7,166.6c-3.6,0-6.5,2.9-6.5,6.5c0,3.6,2.9,6.5,6.5,6.5c3.6,0,6.5-3,6.5-6.5
		C-802.2,169.5-805.1,166.6-808.7,166.6z"/>
	<path class="st1" d="M-790,159.5h17.1v5.9h-9.9v4.4h8.8v6.1h-8.8v10.9h-7.2V159.5z"/>
	<path class="st1" d="M-768.3,159.4h21.5v7.1h-7.3v20.2h-7.2v-20.2h-7.1V159.4z"/>
	<path class="st1" d="M-722,177.1l-4.5,9.7h-5.2l-12.6-27.3h7.9l7.7,16.7l5.2-11.4h3l5.2,11.4l7.8-16.7h7.9l-12.6,27.3h-5.2
		L-722,177.1z"/>
	<path class="st1" d="M-700.8,186.8l12.8-27.3h3.2l12.9,27.3h-7.2l-1.7-3.6H-692l-1.6,3.6H-700.8z M-689.2,177.2h5.6l-2.8-6
		L-689.2,177.2z"/>
	<path class="st1" d="M-652.4,186.8l-4.2-7.3h-4.4v7.3h-7.2v-27.3h11.5c5.5,0,10.1,4.5,10.1,10.1c0,2.9-1.3,5.5-3.2,7.4l5.8,9.9
		H-652.4z M-661.1,173.3h4.4c2.2,0,3.9-1.7,3.9-3.9s-1.7-3.9-3.9-3.9h-4.4V173.3z"/>
	<path class="st1" d="M-640.6,159.5h17v5.9h-9.8v4.4h8.7v6h-8.7v5h9.8v5.9h-17V159.5z"/>
	<path class="st1" d="M-602.1,159.5h10.1c7.5,0,13.7,6.1,13.7,13.7c0,7.5-6.1,13.7-13.7,13.7h-10.1V159.5z M-594.9,179.6h3
		c3.6,0,6.5-2.9,6.5-6.5c0-3.5-2.9-6.4-6.5-6.4h-3V179.6z"/>
	<path class="st1" d="M-573.3,159.5h17v5.9h-9.8v4.4h8.7v6h-8.7v5h9.8v5.9h-17V159.5z"/>
	<path class="st1" d="M-524.9,159.4l-12.7,27.4h-3.3l-12.7-27.4h7.2l7.2,15.6l7.2-15.6H-524.9z"/>
	<path class="st1" d="M-521.7,159.5h17v5.9h-9.8v4.4h8.7v6h-8.7v5h9.8v5.9h-17V159.5z"/>
	<path class="st1" d="M-499.6,159.5h7.2v20.1h9.8v7.2h-17V159.5z"/>
	<path class="st1" d="M-465.4,159.5c7.5,0,13.7,6.2,13.7,13.7s-6.1,13.6-13.7,13.6c-7.5,0-13.6-6.1-13.6-13.6
		S-473,159.5-465.4,159.5z M-465.4,166.6c-3.6,0-6.5,2.9-6.5,6.5c0,3.6,2.9,6.5,6.5,6.5c3.6,0,6.5-3,6.5-6.5
		C-458.9,169.5-461.8,166.6-465.4,166.6z"/>
	<path class="st1" d="M-446.8,159.5h11.5c5.5,0,10.1,4.5,10.1,10.1c0,5.5-4.5,10-9.9,10h-4.5v7.3h-7.2V159.5z M-439.6,173.3h4.4
		c2.2,0,3.9-1.7,3.9-3.9s-1.7-3.9-3.9-3.9h-4.4V173.3z"/>
	<path class="st1" d="M-406.9,169.6l11.1-10.1h3.2v27.3h-7.2v-14l-7.1,6.5l-7.2-6.5v14h-7.2v-27.3h3.2L-406.9,169.6z"/>
	<path class="st1" d="M-387.1,159.5h17v5.9h-9.8v4.4h8.7v6h-8.7v5h9.8v5.9h-17V159.5z"/>
	<path class="st1" d="M-344.9,186.8l-12.9-12.9v12.9h-7.2v-27.3h2.9l12.9,12.9v-12.9h7.2v27.3H-344.9z"/>
	<path class="st1" d="M-337,159.4h21.5v7.1h-7.3v20.2h-7.2v-20.2h-7.1V159.4z"/>
</g>
</svg>
