<?xml version="1.0" encoding="utf-8"?>
<!-- Generator: Adobe Illustrator 23.0.2, SVG Export Plug-In . SVG Version: 6.00 Build 0)  -->
<svg version="1.1" id="Layer_1" xmlns="http://www.w3.org/2000/svg" xmlns:xlink="http://www.w3.org/1999/xlink" x="0px" y="0px"
	 viewBox="0 0 2000 735" style="enable-background:new 0 0 2000 735;" xml:space="preserve">
<style type="text/css">
	.st0{fill:#FFFFFF;}
</style>
<g>
	<path class="st0" d="M1719.1,420.5c-23.3,38.7-72.8,65.5-129.8,65.5h-67.1v-65.5h-158.6v191h224.9c145.3,0,266.8-81.8,296.4-191
		H1719.1z"/>
	<path class="st0" d="M1522.2,312.7v-56.4h67.1c52.6,0,98.7,22.8,123.9,56.4h170.5c-31.7-106.9-151.9-186.5-295.2-186.5h-224.9
		v186.5H1522.2z"/>
</g>
<g>
	<path class="st0" d="M1020.2,420.5c13.9,2.6,28.3,4,43.3,4c25.1,0,46.1,16.8,46.1,36.9c0,20.1-21,36.2-46.1,36.2
		s-45.3-16.2-45.3-36.9H876.6c0,85.4,83.3,150.8,186.9,150.8s186.9-66,186.9-148.9c0-14.7-2.5-28.8-7.2-42.2H1020.2z"/>
	<path class="st0" d="M1088.9,312.7c-8.3-0.9-16.8-1.4-25.4-1.4c-25.1,0-45.3-16.2-45.3-36.2s20.2-36.9,45.3-36.9
		s46.1,16.8,46.1,36.9h140.8c0-82.8-83.3-148.9-186.9-148.9s-186.1,66.7-186.1,149.5c0,12.8,2,25.2,5.7,37H1088.9z"/>
</g>
<g>
	<polygon class="st0" points="747.2,312.7 747.2,310.6 554.7,310.6 554.7,231.6 772.3,231.6 772.3,126.1 395.3,126.1 395.3,312.7 	
		"/>
	<polygon class="st0" points="554.7,420.5 395.3,420.5 395.3,611.5 772.3,611.5 772.3,507.3 554.7,507.3 	"/>
</g>
<g>
	<rect x="113.8" y="126.1" class="st0" width="159.4" height="186.5"/>
	<rect x="113.8" y="420.5" class="st0" width="159.4" height="191"/>
</g>
<polygon class="st0" points="1883,427.2 114,427.2 114,306 1881.6,306 1883.7,312.7 1884.9,420.5 "/>
<polygon points="1886,420.5 111,420.5 111,312.7 1884.7,312.7 "/>
<g>
	<path class="st0" d="M134.6,339.1h14.5v55.1h-14.5V339.1z"/>
	<path class="st0" d="M200.7,394.2l-26-26.1v26.1h-14.5v-55.1h5.9l26.1,26v-26h14.5v55.1H200.7z"/>
	<path class="st0" d="M217.7,339.1h14.5v40.5H252v14.5h-34.3V339.1z"/>
	<path class="st0" d="M258.7,394.2l25.7-55.1h6.5l25.9,55.1h-14.5l-3.4-7.2h-22.6l-3.3,7.2H258.7z M282.2,374.8h11.2l-5.6-12.1
		L282.2,374.8z"/>
	<path class="st0" d="M364.8,394.2l-26-26.1v26.1h-14.5v-55.1h5.9l26.1,26v-26h14.5v55.1H364.8z"/>
	<path class="st0" d="M381.9,339.1h20.4c15.2,0,27.5,12.3,27.5,27.6c0,15.2-12.3,27.5-27.5,27.5h-20.4V339.1z M396.3,379.8h6.1
		c7.2,0,13.1-5.9,13.1-13.1c0-7.1-5.9-13-13.1-13h-6.1V379.8z"/>
	<path class="st0" d="M472.9,339.1h34.2v12h-19.8v9h17.5v12.2h-17.5v10.1h19.8v11.8h-34.2V339.1z"/>
	<path class="st0" d="M546.6,359.5l22.4-20.4h6.5v55.1H561v-28.3L546.6,379L532.1,366v28.2h-14.5v-55.1h6.5L546.6,359.5z"/>
	<path class="st0" d="M586.6,339.1h23.2c11.2,0,20.3,9.1,20.3,20.3c0,11.1-9,20.2-20,20.2h-9v14.6h-14.5V339.1z M601.1,367.1h9
		c4.4,0,7.9-3.5,7.9-7.9s-3.5-7.9-7.9-7.9h-9V367.1z"/>
	<path class="st0" d="M637.9,339.1h14.5v55.1h-14.5V339.1z"/>
	<path class="st0" d="M695.4,394.2l-8.5-14.6h-9v14.6h-14.5v-55.1h23.2c11.2,0,20.3,9.1,20.3,20.3c0,5.9-2.6,11.2-6.5,14.8l11.7,20
		H695.4z M677.9,367.1h9c4.4,0,7.9-3.5,7.9-7.9s-3.5-7.9-7.9-7.9h-9V367.1z"/>
	<path class="st0" d="M719.2,339.1h34.2v12h-19.8v9h17.5v12.2h-17.5v10.1h19.8v11.8h-34.2V339.1z"/>
	<path class="st0" d="M817.2,356c0-2.3-1.9-4.2-4.2-4.2s-4.1,1.9-4.1,4.2c0,2.3,1.8,4.1,4.1,4.1c5.4,0,10.2,2.6,13.3,6.5
		c2.4,2.9,3.7,6.6,3.7,10.6c0,9.4-7.6,16.9-17,16.9s-17-7.4-17-17.1h12.9c0,2.4,1.8,4.2,4.1,4.2s4.2-1.8,4.2-4.1
		c0-2.3-1.9-4.2-4.2-4.2c-9.4,0-16.9-7.5-16.9-16.9s7.5-17,16.9-17s17,7.5,17,16.9H817.2z"/>
	<path class="st0" d="M865.9,339.1c15.2,0,27.6,12.4,27.6,27.6c0,15.2-12.3,27.5-27.6,27.5c-15.2,0-27.5-12.3-27.5-27.5
		C838.5,351.5,850.7,339.1,865.9,339.1z M865.9,353.5c-7.2,0-13.1,5.9-13.1,13.2c0,7.2,5.9,13.1,13.1,13.1c7.3,0,13.2-6,13.2-13.1
		C879.1,359.3,873.2,353.5,865.9,353.5z"/>
	<path class="st0" d="M903.6,339.1h34.5V351H918v9h17.7v12.3H918v22h-14.5V339.1z"/>
	<path class="st0" d="M947.3,339h43.4v14.4h-14.6v40.8h-14.5v-40.8h-14.3V339z"/>
	<path class="st0" d="M1040.9,374.6l-9.1,19.6h-10.4l-25.4-55.1h15.9l15.6,33.7l10.5-22.9h6.1l10.5,22.9l15.6-33.7h15.9l-25.5,55.1
		H1050L1040.9,374.6z"/>
	<path class="st0" d="M1083.5,394.2l25.7-55.1h6.5l25.9,55.1h-14.5l-3.4-7.2h-22.6l-3.3,7.2H1083.5z M1106.9,374.8h11.2l-5.6-12.1
		L1106.9,374.8z"/>
	<path class="st0" d="M1181,394.2l-8.5-14.6h-9v14.6h-14.5v-55.1h23.2c11.2,0,20.3,9.1,20.3,20.3c0,5.9-2.6,11.2-6.5,14.8l11.7,20
		H1181z M1163.5,367.1h9c4.4,0,7.9-3.5,7.9-7.9s-3.5-7.9-7.9-7.9h-9V367.1z"/>
	<path class="st0" d="M1204.9,339.1h34.2v12h-19.8v9h17.5v12.2h-17.5v10.1h19.8v11.8h-34.2V339.1z"/>
	<path class="st0" d="M1282.5,339.1h20.4c15.2,0,27.5,12.3,27.5,27.6c0,15.2-12.3,27.5-27.5,27.5h-20.4V339.1z M1296.9,379.8h6.1
		c7.2,0,13.1-5.9,13.1-13.1c0-7.1-5.9-13-13.1-13h-6.1V379.8z"/>
	<path class="st0" d="M1340.5,339.1h34.2v12H1355v9h17.5v12.2H1355v10.1h19.8v11.8h-34.2V339.1z"/>
	<path class="st0" d="M1438.3,339l-25.6,55.2h-6.6l-25.7-55.2h14.5l14.5,31.4l14.5-31.4H1438.3z"/>
	<path class="st0" d="M1444.6,339.1h34.2v12h-19.8v9h17.5v12.2h-17.5v10.1h19.8v11.8h-34.2V339.1z"/>
	<path class="st0" d="M1489.2,339.1h14.5v40.5h19.8v14.5h-34.3V339.1z"/>
	<path class="st0" d="M1558.1,339.1c15.2,0,27.6,12.4,27.6,27.6c0,15.2-12.3,27.5-27.6,27.5c-15.2,0-27.5-12.3-27.5-27.5
		C1530.6,351.5,1542.9,339.1,1558.1,339.1z M1558.1,353.5c-7.2,0-13.1,5.9-13.1,13.2c0,7.2,5.9,13.1,13.1,13.1
		c7.3,0,13.2-6,13.2-13.1C1571.2,359.3,1565.4,353.5,1558.1,353.5z"/>
	<path class="st0" d="M1595.7,339.1h23.2c11.2,0,20.3,9.1,20.3,20.3c0,11.1-9,20.2-20,20.2h-9v14.6h-14.5V339.1z M1610.2,367.1h9
		c4.4,0,7.9-3.5,7.9-7.9s-3.5-7.9-7.9-7.9h-9V367.1z"/>
	<path class="st0" d="M1676.1,359.5l22.4-20.4h6.5v55.1h-14.5v-28.3l-14.4,13.1l-14.5-13.1v28.2H1647v-55.1h6.5L1676.1,359.5z"/>
	<path class="st0" d="M1716.1,339.1h34.2v12h-19.8v9h17.5v12.2h-17.5v10.1h19.8v11.8h-34.2V339.1z"/>
	<path class="st0" d="M1801.2,394.2l-26-26.1v26.1h-14.5v-55.1h5.9l26.1,26v-26h14.5v55.1H1801.2z"/>
	<path class="st0" d="M1817.1,339h43.4v14.4h-14.6v40.8h-14.5v-40.8h-14.3V339z"/>
</g>
</svg>
