<?xml version="1.0" standalone="no"?>
<!DOCTYPE svg PUBLIC "-//W3C//DTD SVG 20010904//EN"
 "http://www.w3.org/TR/2001/REC-SVG-20010904/DTD/svg10.dtd">
<svg version="1.0" xmlns="http://www.w3.org/2000/svg"
 width="600.000000pt" height="600.000000pt" viewBox="0 0 600.000000 600.000000"
 preserveAspectRatio="xMidYMid meet">
<metadata>
Created by potrace 1.11, written by Peter Selinger 2001-2013
</metadata>
<g transform="translate(0.000000,600.000000) scale(0.100000,-0.100000)"
fill="#000000" stroke="none">
<path d="M0 3000 l0 -3000 3000 0 3000 0 0 3000 0 3000 -3000 0 -3000 0 0
-3000z m1150 0 l0 -620 -205 0 -205 0 0 620 0 620 205 0 205 0 0 -620z m1270
485 l0 -135 -275 0 -275 0 0 -100 0 -100 245 0 245 0 0 -140 0 -140 -245 0
-245 0 0 -110 0 -110 275 0 275 0 0 -135 0 -135 -480 0 -480 0 0 620 0 620
480 0 480 0 0 -135z m856 124 c186 -34 340 -173 361 -324 l6 -45 -181 0 c-167
0 -181 1 -186 18 -10 31 -51 62 -89 69 -49 8 -84 -3 -113 -34 -59 -64 -5 -143
98 -143 176 -1 367 -110 435 -249 24 -48 28 -68 28 -141 0 -74 -4 -92 -30
-143 -133 -264 -575 -320 -803 -103 -32 31 -68 75 -80 99 -23 45 -44 136 -36
149 3 5 86 8 185 8 156 0 179 -2 179 -16 0 -25 54 -72 92 -79 76 -14 149 46
132 107 -14 47 -57 67 -163 78 -155 16 -278 78 -352 175 -50 66 -69 122 -69
201 0 96 30 166 104 240 119 118 296 167 482 133z m1478 -23 c221 -67 374
-183 462 -348 186 -354 -76 -759 -546 -844 -53 -9 -173 -13 -407 -14 l-333 0
0 621 0 621 368 -4 c366 -4 367 -4 456 -32z"/>
<path d="M4332 2993 l3 -288 93 -3 c117 -3 190 10 269 48 101 50 173 151 173
245 0 94 -76 198 -185 250 -57 28 -69 30 -208 33 l-147 4 2 -289z"/>
</g>
</svg>
